<?xml version="1.0" encoding="utf-8"?>
<!-- Generator: Adobe Illustrator 21.1.0, SVG Export Plug-In . SVG Version: 6.00 Build 0)  -->
<svg version="1.1" id="Layer_1" xmlns="http://www.w3.org/2000/svg" xmlns:xlink="http://www.w3.org/1999/xlink" x="0px" y="0px"
	 viewBox="0 0 512 512" style="enable-background:new 0 0 512 512;" xml:space="preserve">
<style type="text/css">
	.st0{fill:#FFFFFF;}
</style>
<path class="st0" d="M256,46.1c68.4,0,76.5,0.3,103.5,1.5c69.4,3.2,101.8,36.1,104.9,104.9c1.2,27,1.5,35.1,1.5,103.4
	c0,68.4-0.3,76.5-1.5,103.4c-3.2,68.8-35.5,101.8-104.9,104.9c-27,1.2-35.1,1.5-103.5,1.5c-68.4,0-76.5-0.3-103.4-1.5
	c-69.5-3.2-101.8-36.2-104.9-105c-1.2-27-1.5-35.1-1.5-103.4c0-68.4,0.3-76.4,1.5-103.4C50.8,83.7,83.1,50.8,152.6,47.6
	C179.6,46.4,187.6,46.1,256,46.1z M256,0c-69.5,0-78.2,0.3-105.5,1.5C57.5,5.8,5.8,57.4,1.6,150.4C0.3,177.8,0,186.5,0,256
	s0.3,78.3,1.5,105.6c4.3,93,55.9,144.6,148.9,148.9c27.3,1.2,36,1.5,105.6,1.5s78.3-0.3,105.6-1.5c92.9-4.3,144.7-55.9,148.9-148.9
	c1.3-27.3,1.6-36,1.6-105.6s-0.3-78.2-1.5-105.5C506.3,57.6,454.6,5.8,361.6,1.6C334.3,0.3,325.5,0,256,0z M256,124.5
	c-72.6,0-131.5,58.9-131.5,131.5S183.4,387.5,256,387.5S387.5,328.6,387.5,256C387.5,183.4,328.6,124.5,256,124.5z M256,341.3
	c-47.1,0-85.3-38.2-85.3-85.3c0-47.1,38.2-85.3,85.3-85.3s85.3,38.2,85.3,85.3C341.3,303.1,303.1,341.3,256,341.3z M392.7,88.6
	c-17,0-30.7,13.8-30.7,30.7s13.8,30.7,30.7,30.7c17,0,30.7-13.8,30.7-30.7S409.6,88.6,392.7,88.6z"/>
</svg>
